G04 EAGLE Gerber RS-274X export*
G75*
%MOMM*%
%FSLAX34Y34*%
%LPD*%
%INSoldermask Top*%
%IPPOS*%
%AMOC8*
5,1,8,0,0,1.08239X$1,22.5*%
G01*
%ADD10R,2.203200X1.403200*%
%ADD11R,1.553200X0.803200*%
%ADD12R,1.403200X0.753200*%
%ADD13R,1.103200X1.053200*%
%ADD14R,1.203200X1.303200*%
%ADD15C,1.203200*%
%ADD16R,0.453200X0.603200*%
%ADD17R,0.603200X0.453200*%
%ADD18R,3.803200X3.803200*%
%ADD19R,1.003200X2.703200*%
%ADD20C,1.981200*%
%ADD21C,1.303200*%
%ADD22C,1.003200*%
%ADD23C,3.251200*%
%ADD24R,1.303200X1.203200*%
%ADD25R,0.903200X0.903200*%
%ADD26R,0.833200X1.033200*%
%ADD27R,3.003200X1.203200*%
%ADD28C,0.838200*%
%ADD29C,1.270000*%
%ADD30C,1.703200*%


D10*
X239950Y276800D03*
X239950Y332800D03*
D11*
X203200Y289800D03*
X203200Y299800D03*
X203200Y309800D03*
X203200Y319800D03*
D12*
X88599Y238100D03*
X88599Y228600D03*
X88599Y219100D03*
X114601Y219100D03*
X114601Y238100D03*
D13*
X190500Y121200D03*
X190500Y132800D03*
D14*
X139700Y237100D03*
X139700Y220100D03*
X50800Y148200D03*
X50800Y131200D03*
D13*
X165354Y234908D03*
X165354Y223308D03*
D15*
X226060Y149860D03*
X226060Y137160D03*
X226060Y124460D03*
X226060Y111760D03*
D16*
X109100Y150900D03*
X114100Y150900D03*
X119100Y150900D03*
X124100Y150900D03*
X129100Y150900D03*
X134100Y150900D03*
X139100Y150900D03*
X144100Y150900D03*
D17*
X150100Y109900D03*
X150100Y114900D03*
X150100Y119900D03*
X150100Y124900D03*
X150100Y129900D03*
X150100Y134900D03*
X150100Y139900D03*
X150100Y144900D03*
D16*
X144100Y103900D03*
X139100Y103900D03*
X134100Y103900D03*
X129100Y103900D03*
X124100Y103900D03*
X119100Y103900D03*
X114100Y103900D03*
X109100Y103900D03*
D17*
X103100Y144900D03*
X103100Y139900D03*
X103100Y134900D03*
X103100Y129900D03*
X103100Y124900D03*
X103100Y119900D03*
X103100Y114900D03*
X103100Y109900D03*
D18*
X126600Y127400D03*
D19*
X137270Y335000D03*
X116730Y335000D03*
X162508Y335000D03*
D20*
X185500Y354310D02*
X185500Y372090D01*
X68500Y372090D02*
X68500Y354310D01*
D19*
X92000Y335000D03*
D21*
X149500Y362500D03*
X104500Y362500D03*
D22*
X68500Y359200D03*
X68500Y355200D03*
X68500Y367200D03*
X68500Y371200D03*
X185500Y359200D03*
X185500Y355200D03*
X185500Y367200D03*
X185500Y371200D03*
D10*
X14050Y332800D03*
X14050Y276800D03*
D11*
X50800Y319800D03*
X50800Y309800D03*
X50800Y299800D03*
X50800Y289800D03*
D23*
X25400Y25400D03*
X228600Y25400D03*
X25400Y228600D03*
X228600Y228600D03*
D24*
X135500Y63500D03*
X118500Y63500D03*
D25*
X136150Y297600D03*
X136150Y286600D03*
X117850Y286600D03*
X117850Y297600D03*
D26*
X115500Y266700D03*
X138500Y266700D03*
D14*
X165100Y270900D03*
X165100Y287900D03*
D27*
X88900Y294400D03*
X88900Y264400D03*
D28*
X12700Y381000D03*
X242570Y54610D03*
D10*
X499030Y276800D03*
X499030Y332800D03*
D11*
X462280Y289800D03*
X462280Y299800D03*
X462280Y309800D03*
X462280Y319800D03*
D12*
X347679Y238100D03*
X347679Y228600D03*
X347679Y219100D03*
X373681Y219100D03*
X373681Y238100D03*
D13*
X449580Y121200D03*
X449580Y132800D03*
D14*
X398780Y237100D03*
X398780Y220100D03*
X309880Y148200D03*
X309880Y131200D03*
D13*
X424434Y234908D03*
X424434Y223308D03*
D15*
X485140Y149860D03*
X485140Y137160D03*
X485140Y124460D03*
X485140Y111760D03*
D16*
X368180Y150900D03*
X373180Y150900D03*
X378180Y150900D03*
X383180Y150900D03*
X388180Y150900D03*
X393180Y150900D03*
X398180Y150900D03*
X403180Y150900D03*
D17*
X409180Y109900D03*
X409180Y114900D03*
X409180Y119900D03*
X409180Y124900D03*
X409180Y129900D03*
X409180Y134900D03*
X409180Y139900D03*
X409180Y144900D03*
D16*
X403180Y103900D03*
X398180Y103900D03*
X393180Y103900D03*
X388180Y103900D03*
X383180Y103900D03*
X378180Y103900D03*
X373180Y103900D03*
X368180Y103900D03*
D17*
X362180Y144900D03*
X362180Y139900D03*
X362180Y134900D03*
X362180Y129900D03*
X362180Y124900D03*
X362180Y119900D03*
X362180Y114900D03*
X362180Y109900D03*
D18*
X385680Y127400D03*
D19*
X396350Y335000D03*
X375810Y335000D03*
X421588Y335000D03*
D20*
X444580Y354310D02*
X444580Y372090D01*
X327580Y372090D02*
X327580Y354310D01*
D19*
X351080Y335000D03*
D21*
X408580Y362500D03*
X363580Y362500D03*
D22*
X327580Y359200D03*
X327580Y355200D03*
X327580Y367200D03*
X327580Y371200D03*
X444580Y359200D03*
X444580Y355200D03*
X444580Y367200D03*
X444580Y371200D03*
D10*
X273130Y332800D03*
X273130Y276800D03*
D11*
X309880Y319800D03*
X309880Y309800D03*
X309880Y299800D03*
X309880Y289800D03*
D23*
X284480Y25400D03*
X487680Y25400D03*
X284480Y228600D03*
X487680Y228600D03*
D24*
X394580Y63500D03*
X377580Y63500D03*
D25*
X395230Y297600D03*
X395230Y286600D03*
X376930Y286600D03*
X376930Y297600D03*
D26*
X374580Y266700D03*
X397580Y266700D03*
D14*
X424180Y270900D03*
X424180Y287900D03*
D27*
X347980Y294400D03*
X347980Y264400D03*
D28*
X271780Y381000D03*
X501650Y54610D03*
D10*
X758110Y276800D03*
X758110Y332800D03*
D11*
X721360Y289800D03*
X721360Y299800D03*
X721360Y309800D03*
X721360Y319800D03*
D12*
X606759Y238100D03*
X606759Y228600D03*
X606759Y219100D03*
X632761Y219100D03*
X632761Y238100D03*
D13*
X708660Y121200D03*
X708660Y132800D03*
D14*
X657860Y237100D03*
X657860Y220100D03*
X568960Y148200D03*
X568960Y131200D03*
D13*
X683514Y234908D03*
X683514Y223308D03*
D15*
X744220Y149860D03*
X744220Y137160D03*
X744220Y124460D03*
X744220Y111760D03*
D16*
X627260Y150900D03*
X632260Y150900D03*
X637260Y150900D03*
X642260Y150900D03*
X647260Y150900D03*
X652260Y150900D03*
X657260Y150900D03*
X662260Y150900D03*
D17*
X668260Y109900D03*
X668260Y114900D03*
X668260Y119900D03*
X668260Y124900D03*
X668260Y129900D03*
X668260Y134900D03*
X668260Y139900D03*
X668260Y144900D03*
D16*
X662260Y103900D03*
X657260Y103900D03*
X652260Y103900D03*
X647260Y103900D03*
X642260Y103900D03*
X637260Y103900D03*
X632260Y103900D03*
X627260Y103900D03*
D17*
X621260Y144900D03*
X621260Y139900D03*
X621260Y134900D03*
X621260Y129900D03*
X621260Y124900D03*
X621260Y119900D03*
X621260Y114900D03*
X621260Y109900D03*
D18*
X644760Y127400D03*
D19*
X655430Y335000D03*
X634890Y335000D03*
X680668Y335000D03*
D20*
X703660Y354310D02*
X703660Y372090D01*
X586660Y372090D02*
X586660Y354310D01*
D19*
X610160Y335000D03*
D21*
X667660Y362500D03*
X622660Y362500D03*
D22*
X586660Y359200D03*
X586660Y355200D03*
X586660Y367200D03*
X586660Y371200D03*
X703660Y359200D03*
X703660Y355200D03*
X703660Y367200D03*
X703660Y371200D03*
D10*
X532210Y332800D03*
X532210Y276800D03*
D11*
X568960Y319800D03*
X568960Y309800D03*
X568960Y299800D03*
X568960Y289800D03*
D23*
X543560Y25400D03*
X746760Y25400D03*
X543560Y228600D03*
X746760Y228600D03*
D24*
X653660Y63500D03*
X636660Y63500D03*
D25*
X654310Y297600D03*
X654310Y286600D03*
X636010Y286600D03*
X636010Y297600D03*
D26*
X633660Y266700D03*
X656660Y266700D03*
D14*
X683260Y270900D03*
X683260Y287900D03*
D27*
X607060Y294400D03*
X607060Y264400D03*
D28*
X530860Y381000D03*
X760730Y54610D03*
D10*
X1017190Y276800D03*
X1017190Y332800D03*
D11*
X980440Y289800D03*
X980440Y299800D03*
X980440Y309800D03*
X980440Y319800D03*
D12*
X865839Y238100D03*
X865839Y228600D03*
X865839Y219100D03*
X891841Y219100D03*
X891841Y238100D03*
D13*
X967740Y121200D03*
X967740Y132800D03*
D14*
X916940Y237100D03*
X916940Y220100D03*
X828040Y148200D03*
X828040Y131200D03*
D13*
X942594Y234908D03*
X942594Y223308D03*
D15*
X1003300Y149860D03*
X1003300Y137160D03*
X1003300Y124460D03*
X1003300Y111760D03*
D16*
X886340Y150900D03*
X891340Y150900D03*
X896340Y150900D03*
X901340Y150900D03*
X906340Y150900D03*
X911340Y150900D03*
X916340Y150900D03*
X921340Y150900D03*
D17*
X927340Y109900D03*
X927340Y114900D03*
X927340Y119900D03*
X927340Y124900D03*
X927340Y129900D03*
X927340Y134900D03*
X927340Y139900D03*
X927340Y144900D03*
D16*
X921340Y103900D03*
X916340Y103900D03*
X911340Y103900D03*
X906340Y103900D03*
X901340Y103900D03*
X896340Y103900D03*
X891340Y103900D03*
X886340Y103900D03*
D17*
X880340Y144900D03*
X880340Y139900D03*
X880340Y134900D03*
X880340Y129900D03*
X880340Y124900D03*
X880340Y119900D03*
X880340Y114900D03*
X880340Y109900D03*
D18*
X903840Y127400D03*
D19*
X914510Y335000D03*
X893970Y335000D03*
X939748Y335000D03*
D20*
X962740Y354310D02*
X962740Y372090D01*
X845740Y372090D02*
X845740Y354310D01*
D19*
X869240Y335000D03*
D21*
X926740Y362500D03*
X881740Y362500D03*
D22*
X845740Y359200D03*
X845740Y355200D03*
X845740Y367200D03*
X845740Y371200D03*
X962740Y359200D03*
X962740Y355200D03*
X962740Y367200D03*
X962740Y371200D03*
D10*
X791290Y332800D03*
X791290Y276800D03*
D11*
X828040Y319800D03*
X828040Y309800D03*
X828040Y299800D03*
X828040Y289800D03*
D23*
X802640Y25400D03*
X1005840Y25400D03*
X802640Y228600D03*
X1005840Y228600D03*
D24*
X912740Y63500D03*
X895740Y63500D03*
D25*
X913390Y297600D03*
X913390Y286600D03*
X895090Y286600D03*
X895090Y297600D03*
D26*
X892740Y266700D03*
X915740Y266700D03*
D14*
X942340Y270900D03*
X942340Y287900D03*
D27*
X866140Y294400D03*
X866140Y264400D03*
D28*
X789940Y381000D03*
X1019810Y54610D03*
D10*
X1276270Y276800D03*
X1276270Y332800D03*
D11*
X1239520Y289800D03*
X1239520Y299800D03*
X1239520Y309800D03*
X1239520Y319800D03*
D12*
X1124919Y238100D03*
X1124919Y228600D03*
X1124919Y219100D03*
X1150921Y219100D03*
X1150921Y238100D03*
D13*
X1226820Y121200D03*
X1226820Y132800D03*
D14*
X1176020Y237100D03*
X1176020Y220100D03*
X1087120Y148200D03*
X1087120Y131200D03*
D13*
X1201674Y234908D03*
X1201674Y223308D03*
D15*
X1262380Y149860D03*
X1262380Y137160D03*
X1262380Y124460D03*
X1262380Y111760D03*
D16*
X1145420Y150900D03*
X1150420Y150900D03*
X1155420Y150900D03*
X1160420Y150900D03*
X1165420Y150900D03*
X1170420Y150900D03*
X1175420Y150900D03*
X1180420Y150900D03*
D17*
X1186420Y109900D03*
X1186420Y114900D03*
X1186420Y119900D03*
X1186420Y124900D03*
X1186420Y129900D03*
X1186420Y134900D03*
X1186420Y139900D03*
X1186420Y144900D03*
D16*
X1180420Y103900D03*
X1175420Y103900D03*
X1170420Y103900D03*
X1165420Y103900D03*
X1160420Y103900D03*
X1155420Y103900D03*
X1150420Y103900D03*
X1145420Y103900D03*
D17*
X1139420Y144900D03*
X1139420Y139900D03*
X1139420Y134900D03*
X1139420Y129900D03*
X1139420Y124900D03*
X1139420Y119900D03*
X1139420Y114900D03*
X1139420Y109900D03*
D18*
X1162920Y127400D03*
D19*
X1173590Y335000D03*
X1153050Y335000D03*
X1198828Y335000D03*
D20*
X1221820Y354310D02*
X1221820Y372090D01*
X1104820Y372090D02*
X1104820Y354310D01*
D19*
X1128320Y335000D03*
D21*
X1185820Y362500D03*
X1140820Y362500D03*
D22*
X1104820Y359200D03*
X1104820Y355200D03*
X1104820Y367200D03*
X1104820Y371200D03*
X1221820Y359200D03*
X1221820Y355200D03*
X1221820Y367200D03*
X1221820Y371200D03*
D10*
X1050370Y332800D03*
X1050370Y276800D03*
D11*
X1087120Y319800D03*
X1087120Y309800D03*
X1087120Y299800D03*
X1087120Y289800D03*
D23*
X1061720Y25400D03*
X1264920Y25400D03*
X1061720Y228600D03*
X1264920Y228600D03*
D24*
X1171820Y63500D03*
X1154820Y63500D03*
D25*
X1172470Y297600D03*
X1172470Y286600D03*
X1154170Y286600D03*
X1154170Y297600D03*
D26*
X1151820Y266700D03*
X1174820Y266700D03*
D14*
X1201420Y270900D03*
X1201420Y287900D03*
D27*
X1125220Y294400D03*
X1125220Y264400D03*
D28*
X1049020Y381000D03*
X1278890Y54610D03*
D10*
X239950Y822900D03*
X239950Y878900D03*
D11*
X203200Y835900D03*
X203200Y845900D03*
X203200Y855900D03*
X203200Y865900D03*
D12*
X88599Y784200D03*
X88599Y774700D03*
X88599Y765200D03*
X114601Y765200D03*
X114601Y784200D03*
D13*
X190500Y667300D03*
X190500Y678900D03*
D14*
X139700Y783200D03*
X139700Y766200D03*
X50800Y694300D03*
X50800Y677300D03*
D13*
X165354Y781008D03*
X165354Y769408D03*
D15*
X226060Y695960D03*
X226060Y683260D03*
X226060Y670560D03*
X226060Y657860D03*
D16*
X109100Y697000D03*
X114100Y697000D03*
X119100Y697000D03*
X124100Y697000D03*
X129100Y697000D03*
X134100Y697000D03*
X139100Y697000D03*
X144100Y697000D03*
D17*
X150100Y656000D03*
X150100Y661000D03*
X150100Y666000D03*
X150100Y671000D03*
X150100Y676000D03*
X150100Y681000D03*
X150100Y686000D03*
X150100Y691000D03*
D16*
X144100Y650000D03*
X139100Y650000D03*
X134100Y650000D03*
X129100Y650000D03*
X124100Y650000D03*
X119100Y650000D03*
X114100Y650000D03*
X109100Y650000D03*
D17*
X103100Y691000D03*
X103100Y686000D03*
X103100Y681000D03*
X103100Y676000D03*
X103100Y671000D03*
X103100Y666000D03*
X103100Y661000D03*
X103100Y656000D03*
D18*
X126600Y673500D03*
D19*
X137270Y881100D03*
X116730Y881100D03*
X162508Y881100D03*
D20*
X185500Y900410D02*
X185500Y918190D01*
X68500Y918190D02*
X68500Y900410D01*
D19*
X92000Y881100D03*
D21*
X149500Y908600D03*
X104500Y908600D03*
D22*
X68500Y905300D03*
X68500Y901300D03*
X68500Y913300D03*
X68500Y917300D03*
X185500Y905300D03*
X185500Y901300D03*
X185500Y913300D03*
X185500Y917300D03*
D10*
X14050Y878900D03*
X14050Y822900D03*
D11*
X50800Y865900D03*
X50800Y855900D03*
X50800Y845900D03*
X50800Y835900D03*
D23*
X25400Y571500D03*
X228600Y571500D03*
X25400Y774700D03*
X228600Y774700D03*
D24*
X135500Y609600D03*
X118500Y609600D03*
D25*
X136150Y843700D03*
X136150Y832700D03*
X117850Y832700D03*
X117850Y843700D03*
D26*
X115500Y812800D03*
X138500Y812800D03*
D14*
X165100Y817000D03*
X165100Y834000D03*
D27*
X88900Y840500D03*
X88900Y810500D03*
D28*
X12700Y927100D03*
X242570Y600710D03*
D10*
X499030Y822900D03*
X499030Y878900D03*
D11*
X462280Y835900D03*
X462280Y845900D03*
X462280Y855900D03*
X462280Y865900D03*
D12*
X347679Y784200D03*
X347679Y774700D03*
X347679Y765200D03*
X373681Y765200D03*
X373681Y784200D03*
D13*
X449580Y667300D03*
X449580Y678900D03*
D14*
X398780Y783200D03*
X398780Y766200D03*
X309880Y694300D03*
X309880Y677300D03*
D13*
X424434Y781008D03*
X424434Y769408D03*
D15*
X485140Y695960D03*
X485140Y683260D03*
X485140Y670560D03*
X485140Y657860D03*
D16*
X368180Y697000D03*
X373180Y697000D03*
X378180Y697000D03*
X383180Y697000D03*
X388180Y697000D03*
X393180Y697000D03*
X398180Y697000D03*
X403180Y697000D03*
D17*
X409180Y656000D03*
X409180Y661000D03*
X409180Y666000D03*
X409180Y671000D03*
X409180Y676000D03*
X409180Y681000D03*
X409180Y686000D03*
X409180Y691000D03*
D16*
X403180Y650000D03*
X398180Y650000D03*
X393180Y650000D03*
X388180Y650000D03*
X383180Y650000D03*
X378180Y650000D03*
X373180Y650000D03*
X368180Y650000D03*
D17*
X362180Y691000D03*
X362180Y686000D03*
X362180Y681000D03*
X362180Y676000D03*
X362180Y671000D03*
X362180Y666000D03*
X362180Y661000D03*
X362180Y656000D03*
D18*
X385680Y673500D03*
D19*
X396350Y881100D03*
X375810Y881100D03*
X421588Y881100D03*
D20*
X444580Y900410D02*
X444580Y918190D01*
X327580Y918190D02*
X327580Y900410D01*
D19*
X351080Y881100D03*
D21*
X408580Y908600D03*
X363580Y908600D03*
D22*
X327580Y905300D03*
X327580Y901300D03*
X327580Y913300D03*
X327580Y917300D03*
X444580Y905300D03*
X444580Y901300D03*
X444580Y913300D03*
X444580Y917300D03*
D10*
X273130Y878900D03*
X273130Y822900D03*
D11*
X309880Y865900D03*
X309880Y855900D03*
X309880Y845900D03*
X309880Y835900D03*
D23*
X284480Y571500D03*
X487680Y571500D03*
X284480Y774700D03*
X487680Y774700D03*
D24*
X394580Y609600D03*
X377580Y609600D03*
D25*
X395230Y843700D03*
X395230Y832700D03*
X376930Y832700D03*
X376930Y843700D03*
D26*
X374580Y812800D03*
X397580Y812800D03*
D14*
X424180Y817000D03*
X424180Y834000D03*
D27*
X347980Y840500D03*
X347980Y810500D03*
D28*
X271780Y927100D03*
X501650Y600710D03*
D10*
X758110Y822900D03*
X758110Y878900D03*
D11*
X721360Y835900D03*
X721360Y845900D03*
X721360Y855900D03*
X721360Y865900D03*
D12*
X606759Y784200D03*
X606759Y774700D03*
X606759Y765200D03*
X632761Y765200D03*
X632761Y784200D03*
D13*
X708660Y667300D03*
X708660Y678900D03*
D14*
X657860Y783200D03*
X657860Y766200D03*
X568960Y694300D03*
X568960Y677300D03*
D13*
X683514Y781008D03*
X683514Y769408D03*
D15*
X744220Y695960D03*
X744220Y683260D03*
X744220Y670560D03*
X744220Y657860D03*
D16*
X627260Y697000D03*
X632260Y697000D03*
X637260Y697000D03*
X642260Y697000D03*
X647260Y697000D03*
X652260Y697000D03*
X657260Y697000D03*
X662260Y697000D03*
D17*
X668260Y656000D03*
X668260Y661000D03*
X668260Y666000D03*
X668260Y671000D03*
X668260Y676000D03*
X668260Y681000D03*
X668260Y686000D03*
X668260Y691000D03*
D16*
X662260Y650000D03*
X657260Y650000D03*
X652260Y650000D03*
X647260Y650000D03*
X642260Y650000D03*
X637260Y650000D03*
X632260Y650000D03*
X627260Y650000D03*
D17*
X621260Y691000D03*
X621260Y686000D03*
X621260Y681000D03*
X621260Y676000D03*
X621260Y671000D03*
X621260Y666000D03*
X621260Y661000D03*
X621260Y656000D03*
D18*
X644760Y673500D03*
D19*
X655430Y881100D03*
X634890Y881100D03*
X680668Y881100D03*
D20*
X703660Y900410D02*
X703660Y918190D01*
X586660Y918190D02*
X586660Y900410D01*
D19*
X610160Y881100D03*
D21*
X667660Y908600D03*
X622660Y908600D03*
D22*
X586660Y905300D03*
X586660Y901300D03*
X586660Y913300D03*
X586660Y917300D03*
X703660Y905300D03*
X703660Y901300D03*
X703660Y913300D03*
X703660Y917300D03*
D10*
X532210Y878900D03*
X532210Y822900D03*
D11*
X568960Y865900D03*
X568960Y855900D03*
X568960Y845900D03*
X568960Y835900D03*
D23*
X543560Y571500D03*
X746760Y571500D03*
X543560Y774700D03*
X746760Y774700D03*
D24*
X653660Y609600D03*
X636660Y609600D03*
D25*
X654310Y843700D03*
X654310Y832700D03*
X636010Y832700D03*
X636010Y843700D03*
D26*
X633660Y812800D03*
X656660Y812800D03*
D14*
X683260Y817000D03*
X683260Y834000D03*
D27*
X607060Y840500D03*
X607060Y810500D03*
D28*
X530860Y927100D03*
X760730Y600710D03*
D10*
X1017190Y822900D03*
X1017190Y878900D03*
D11*
X980440Y835900D03*
X980440Y845900D03*
X980440Y855900D03*
X980440Y865900D03*
D12*
X865839Y784200D03*
X865839Y774700D03*
X865839Y765200D03*
X891841Y765200D03*
X891841Y784200D03*
D13*
X967740Y667300D03*
X967740Y678900D03*
D14*
X916940Y783200D03*
X916940Y766200D03*
X828040Y694300D03*
X828040Y677300D03*
D13*
X942594Y781008D03*
X942594Y769408D03*
D15*
X1003300Y695960D03*
X1003300Y683260D03*
X1003300Y670560D03*
X1003300Y657860D03*
D16*
X886340Y697000D03*
X891340Y697000D03*
X896340Y697000D03*
X901340Y697000D03*
X906340Y697000D03*
X911340Y697000D03*
X916340Y697000D03*
X921340Y697000D03*
D17*
X927340Y656000D03*
X927340Y661000D03*
X927340Y666000D03*
X927340Y671000D03*
X927340Y676000D03*
X927340Y681000D03*
X927340Y686000D03*
X927340Y691000D03*
D16*
X921340Y650000D03*
X916340Y650000D03*
X911340Y650000D03*
X906340Y650000D03*
X901340Y650000D03*
X896340Y650000D03*
X891340Y650000D03*
X886340Y650000D03*
D17*
X880340Y691000D03*
X880340Y686000D03*
X880340Y681000D03*
X880340Y676000D03*
X880340Y671000D03*
X880340Y666000D03*
X880340Y661000D03*
X880340Y656000D03*
D18*
X903840Y673500D03*
D19*
X914510Y881100D03*
X893970Y881100D03*
X939748Y881100D03*
D20*
X962740Y900410D02*
X962740Y918190D01*
X845740Y918190D02*
X845740Y900410D01*
D19*
X869240Y881100D03*
D21*
X926740Y908600D03*
X881740Y908600D03*
D22*
X845740Y905300D03*
X845740Y901300D03*
X845740Y913300D03*
X845740Y917300D03*
X962740Y905300D03*
X962740Y901300D03*
X962740Y913300D03*
X962740Y917300D03*
D10*
X791290Y878900D03*
X791290Y822900D03*
D11*
X828040Y865900D03*
X828040Y855900D03*
X828040Y845900D03*
X828040Y835900D03*
D23*
X802640Y571500D03*
X1005840Y571500D03*
X802640Y774700D03*
X1005840Y774700D03*
D24*
X912740Y609600D03*
X895740Y609600D03*
D25*
X913390Y843700D03*
X913390Y832700D03*
X895090Y832700D03*
X895090Y843700D03*
D26*
X892740Y812800D03*
X915740Y812800D03*
D14*
X942340Y817000D03*
X942340Y834000D03*
D27*
X866140Y840500D03*
X866140Y810500D03*
D28*
X789940Y927100D03*
X1019810Y600710D03*
D10*
X1276270Y822900D03*
X1276270Y878900D03*
D11*
X1239520Y835900D03*
X1239520Y845900D03*
X1239520Y855900D03*
X1239520Y865900D03*
D12*
X1124919Y784200D03*
X1124919Y774700D03*
X1124919Y765200D03*
X1150921Y765200D03*
X1150921Y784200D03*
D13*
X1226820Y667300D03*
X1226820Y678900D03*
D14*
X1176020Y783200D03*
X1176020Y766200D03*
X1087120Y694300D03*
X1087120Y677300D03*
D13*
X1201674Y781008D03*
X1201674Y769408D03*
D15*
X1262380Y695960D03*
X1262380Y683260D03*
X1262380Y670560D03*
X1262380Y657860D03*
D16*
X1145420Y697000D03*
X1150420Y697000D03*
X1155420Y697000D03*
X1160420Y697000D03*
X1165420Y697000D03*
X1170420Y697000D03*
X1175420Y697000D03*
X1180420Y697000D03*
D17*
X1186420Y656000D03*
X1186420Y661000D03*
X1186420Y666000D03*
X1186420Y671000D03*
X1186420Y676000D03*
X1186420Y681000D03*
X1186420Y686000D03*
X1186420Y691000D03*
D16*
X1180420Y650000D03*
X1175420Y650000D03*
X1170420Y650000D03*
X1165420Y650000D03*
X1160420Y650000D03*
X1155420Y650000D03*
X1150420Y650000D03*
X1145420Y650000D03*
D17*
X1139420Y691000D03*
X1139420Y686000D03*
X1139420Y681000D03*
X1139420Y676000D03*
X1139420Y671000D03*
X1139420Y666000D03*
X1139420Y661000D03*
X1139420Y656000D03*
D18*
X1162920Y673500D03*
D19*
X1173590Y881100D03*
X1153050Y881100D03*
X1198828Y881100D03*
D20*
X1221820Y900410D02*
X1221820Y918190D01*
X1104820Y918190D02*
X1104820Y900410D01*
D19*
X1128320Y881100D03*
D21*
X1185820Y908600D03*
X1140820Y908600D03*
D22*
X1104820Y905300D03*
X1104820Y901300D03*
X1104820Y913300D03*
X1104820Y917300D03*
X1221820Y905300D03*
X1221820Y901300D03*
X1221820Y913300D03*
X1221820Y917300D03*
D10*
X1050370Y878900D03*
X1050370Y822900D03*
D11*
X1087120Y865900D03*
X1087120Y855900D03*
X1087120Y845900D03*
X1087120Y835900D03*
D23*
X1061720Y571500D03*
X1264920Y571500D03*
X1061720Y774700D03*
X1264920Y774700D03*
D24*
X1171820Y609600D03*
X1154820Y609600D03*
D25*
X1172470Y843700D03*
X1172470Y832700D03*
X1154170Y832700D03*
X1154170Y843700D03*
D26*
X1151820Y812800D03*
X1174820Y812800D03*
D14*
X1201420Y817000D03*
X1201420Y834000D03*
D27*
X1125220Y840500D03*
X1125220Y810500D03*
D28*
X1049020Y927100D03*
X1278890Y600710D03*
D15*
X68580Y1108075D03*
X1221105Y1108075D03*
D29*
X59525Y-168275D02*
X59528Y-168053D01*
X59536Y-167831D01*
X59550Y-167609D01*
X59569Y-167387D01*
X59593Y-167167D01*
X59623Y-166946D01*
X59658Y-166727D01*
X59699Y-166508D01*
X59745Y-166291D01*
X59796Y-166075D01*
X59853Y-165860D01*
X59915Y-165646D01*
X59982Y-165435D01*
X60054Y-165224D01*
X60132Y-165016D01*
X60214Y-164810D01*
X60302Y-164606D01*
X60394Y-164403D01*
X60492Y-164204D01*
X60594Y-164007D01*
X60701Y-163812D01*
X60813Y-163620D01*
X60930Y-163431D01*
X61051Y-163244D01*
X61177Y-163061D01*
X61307Y-162881D01*
X61442Y-162704D01*
X61580Y-162531D01*
X61723Y-162361D01*
X61871Y-162194D01*
X62022Y-162031D01*
X62177Y-161872D01*
X62336Y-161717D01*
X62499Y-161566D01*
X62666Y-161418D01*
X62836Y-161275D01*
X63009Y-161137D01*
X63186Y-161002D01*
X63366Y-160872D01*
X63549Y-160746D01*
X63736Y-160625D01*
X63925Y-160508D01*
X64117Y-160396D01*
X64312Y-160289D01*
X64509Y-160187D01*
X64708Y-160089D01*
X64911Y-159997D01*
X65115Y-159909D01*
X65321Y-159827D01*
X65529Y-159749D01*
X65740Y-159677D01*
X65951Y-159610D01*
X66165Y-159548D01*
X66380Y-159491D01*
X66596Y-159440D01*
X66813Y-159394D01*
X67032Y-159353D01*
X67251Y-159318D01*
X67472Y-159288D01*
X67692Y-159264D01*
X67914Y-159245D01*
X68136Y-159231D01*
X68358Y-159223D01*
X68580Y-159220D01*
X68802Y-159223D01*
X69024Y-159231D01*
X69246Y-159245D01*
X69468Y-159264D01*
X69688Y-159288D01*
X69909Y-159318D01*
X70128Y-159353D01*
X70347Y-159394D01*
X70564Y-159440D01*
X70780Y-159491D01*
X70995Y-159548D01*
X71209Y-159610D01*
X71420Y-159677D01*
X71631Y-159749D01*
X71839Y-159827D01*
X72045Y-159909D01*
X72249Y-159997D01*
X72452Y-160089D01*
X72651Y-160187D01*
X72848Y-160289D01*
X73043Y-160396D01*
X73235Y-160508D01*
X73424Y-160625D01*
X73611Y-160746D01*
X73794Y-160872D01*
X73974Y-161002D01*
X74151Y-161137D01*
X74324Y-161275D01*
X74494Y-161418D01*
X74661Y-161566D01*
X74824Y-161717D01*
X74983Y-161872D01*
X75138Y-162031D01*
X75289Y-162194D01*
X75437Y-162361D01*
X75580Y-162531D01*
X75718Y-162704D01*
X75853Y-162881D01*
X75983Y-163061D01*
X76109Y-163244D01*
X76230Y-163431D01*
X76347Y-163620D01*
X76459Y-163812D01*
X76566Y-164007D01*
X76668Y-164204D01*
X76766Y-164403D01*
X76858Y-164606D01*
X76946Y-164810D01*
X77028Y-165016D01*
X77106Y-165224D01*
X77178Y-165435D01*
X77245Y-165646D01*
X77307Y-165860D01*
X77364Y-166075D01*
X77415Y-166291D01*
X77461Y-166508D01*
X77502Y-166727D01*
X77537Y-166946D01*
X77567Y-167167D01*
X77591Y-167387D01*
X77610Y-167609D01*
X77624Y-167831D01*
X77632Y-168053D01*
X77635Y-168275D01*
X77632Y-168497D01*
X77624Y-168719D01*
X77610Y-168941D01*
X77591Y-169163D01*
X77567Y-169383D01*
X77537Y-169604D01*
X77502Y-169823D01*
X77461Y-170042D01*
X77415Y-170259D01*
X77364Y-170475D01*
X77307Y-170690D01*
X77245Y-170904D01*
X77178Y-171115D01*
X77106Y-171326D01*
X77028Y-171534D01*
X76946Y-171740D01*
X76858Y-171944D01*
X76766Y-172147D01*
X76668Y-172346D01*
X76566Y-172543D01*
X76459Y-172738D01*
X76347Y-172930D01*
X76230Y-173119D01*
X76109Y-173306D01*
X75983Y-173489D01*
X75853Y-173669D01*
X75718Y-173846D01*
X75580Y-174019D01*
X75437Y-174189D01*
X75289Y-174356D01*
X75138Y-174519D01*
X74983Y-174678D01*
X74824Y-174833D01*
X74661Y-174984D01*
X74494Y-175132D01*
X74324Y-175275D01*
X74151Y-175413D01*
X73974Y-175548D01*
X73794Y-175678D01*
X73611Y-175804D01*
X73424Y-175925D01*
X73235Y-176042D01*
X73043Y-176154D01*
X72848Y-176261D01*
X72651Y-176363D01*
X72452Y-176461D01*
X72249Y-176553D01*
X72045Y-176641D01*
X71839Y-176723D01*
X71631Y-176801D01*
X71420Y-176873D01*
X71209Y-176940D01*
X70995Y-177002D01*
X70780Y-177059D01*
X70564Y-177110D01*
X70347Y-177156D01*
X70128Y-177197D01*
X69909Y-177232D01*
X69688Y-177262D01*
X69468Y-177286D01*
X69246Y-177305D01*
X69024Y-177319D01*
X68802Y-177327D01*
X68580Y-177330D01*
X68358Y-177327D01*
X68136Y-177319D01*
X67914Y-177305D01*
X67692Y-177286D01*
X67472Y-177262D01*
X67251Y-177232D01*
X67032Y-177197D01*
X66813Y-177156D01*
X66596Y-177110D01*
X66380Y-177059D01*
X66165Y-177002D01*
X65951Y-176940D01*
X65740Y-176873D01*
X65529Y-176801D01*
X65321Y-176723D01*
X65115Y-176641D01*
X64911Y-176553D01*
X64708Y-176461D01*
X64509Y-176363D01*
X64312Y-176261D01*
X64117Y-176154D01*
X63925Y-176042D01*
X63736Y-175925D01*
X63549Y-175804D01*
X63366Y-175678D01*
X63186Y-175548D01*
X63009Y-175413D01*
X62836Y-175275D01*
X62666Y-175132D01*
X62499Y-174984D01*
X62336Y-174833D01*
X62177Y-174678D01*
X62022Y-174519D01*
X61871Y-174356D01*
X61723Y-174189D01*
X61580Y-174019D01*
X61442Y-173846D01*
X61307Y-173669D01*
X61177Y-173489D01*
X61051Y-173306D01*
X60930Y-173119D01*
X60813Y-172930D01*
X60701Y-172738D01*
X60594Y-172543D01*
X60492Y-172346D01*
X60394Y-172147D01*
X60302Y-171944D01*
X60214Y-171740D01*
X60132Y-171534D01*
X60054Y-171326D01*
X59982Y-171115D01*
X59915Y-170904D01*
X59853Y-170690D01*
X59796Y-170475D01*
X59745Y-170259D01*
X59699Y-170042D01*
X59658Y-169823D01*
X59623Y-169604D01*
X59593Y-169383D01*
X59569Y-169163D01*
X59550Y-168941D01*
X59536Y-168719D01*
X59528Y-168497D01*
X59525Y-168275D01*
D30*
X68580Y-168275D03*
M02*
