M48
;GenerationSoftware,Autodesk,EAGLE,9.5.2*%
;CreationDate,2021-10-21T04:30:34Z*%
FMAT,2
ICI,OFF
METRIC,TZ,000.000
T6C0.305
T5C0.381
T4C0.508
T3C0.800
T2C1.100
T1C3.048
%
G90
M71
T1
X54356Y2540
X106172Y77470
X126492Y57150
X106172Y57150
X100584Y2540
X74676Y2540
X80264Y22860
X100584Y77470
X80264Y77470
X80264Y57150
X100584Y22860
X28448Y2540
X74676Y77470
X54356Y77470
X74676Y57150
X54356Y57150
X48768Y2540
X28448Y22860
X48768Y77470
X28448Y77470
X48768Y57150
X48768Y22860
X126492Y77470
X54356Y22860
X74676Y22860
X28448Y57150
X2540Y57150
X22860Y57150
X2540Y77470
X22860Y77470
X100584Y57150
X2540Y2540
X22860Y2540
X2540Y22860
X22860Y22860
X106172Y2540
X126492Y2540
X106172Y22860
X126492Y22860
X80264Y2540
T2
X114082Y90860
X118582Y90860
X88174Y90860
X92674Y90860
X62266Y90860
X66766Y90860
X14950Y36250
X10450Y36250
X92674Y36250
X88174Y36250
X62266Y36250
X118582Y36250
X40858Y36250
X14950Y90860
X36358Y36250
X10450Y90860
X40858Y90860
X36358Y90860
X66766Y36250
X114082Y36250
T3
X84574Y37120
X6850Y35920
X6850Y35520
X6850Y36720
X6850Y37120
X58666Y37120
X18550Y35520
X18550Y36720
X18550Y37120
X32758Y35920
X32758Y35520
X32758Y36720
X32758Y37120
X44458Y35920
X44458Y35520
X44458Y36720
X44458Y37120
X58666Y35920
X58666Y35520
X58666Y36720
X70366Y35920
X70366Y35520
X70366Y36720
X70366Y37120
X84574Y35920
X84574Y35520
X84574Y36720
X96274Y35920
X96274Y35520
X96274Y36720
X96274Y37120
X110482Y35920
X110482Y35520
X110482Y36720
X110482Y37120
X122182Y35920
X122182Y35520
X122182Y36720
X122182Y37120
X6850Y90530
X6850Y90130
X6850Y91330
X6850Y91730
X18550Y90530
X18550Y90130
X18550Y91330
X18550Y91730
X32758Y90530
X32758Y90130
X32758Y91330
X32758Y91730
X44458Y90530
X44458Y90130
X44458Y91330
X44458Y91730
X58666Y90530
X58666Y90130
X58666Y91330
X58666Y91730
X70366Y90530
X70366Y90130
X70366Y91330
X70366Y91730
X84574Y90530
X84574Y90130
X84574Y91330
X84574Y91730
X96274Y90530
X96274Y90130
X96274Y91330
X96274Y91730
X110482Y90530
X110482Y90130
X110482Y91330
X110482Y91730
X122182Y90530
X122182Y90130
X122182Y91330
X122182Y91730
X18550Y35920
X18550Y36320
X6850Y36320
X44458Y36320
X32758Y36320
X70366Y36320
X58666Y36320
X96274Y36320
X84574Y36320
X122182Y36320
X110482Y36320
X110482Y90930
X18550Y90930
X6850Y90930
X44458Y90930
X32758Y90930
X70366Y90930
X58666Y90930
X96274Y90930
X84574Y90930
X122182Y90930
T4
X22606Y14986
X22606Y13716
X22606Y12446
X22606Y11176
X100330Y69596
X100330Y68326
X48514Y14986
X48514Y13716
X48514Y12446
X48514Y11176
X100330Y67056
X100330Y65786
X74422Y14986
X74422Y13716
X74422Y12446
X74422Y11176
X22606Y67056
X126238Y69596
X100330Y14986
X100330Y13716
X100330Y12446
X100330Y11176
X126238Y68326
X22606Y69596
X126238Y14986
X126238Y13716
X126238Y12446
X126238Y11176
X126238Y67056
X126238Y65786
X48514Y68326
X22606Y68326
X22606Y65786
X48514Y69596
X48514Y67056
X48514Y65786
X74422Y69596
X74422Y68326
X74422Y67056
X74422Y65786
T5
X118110Y72390
X40386Y72390
X118110Y17780
X58166Y28575
X14478Y17780
X40386Y17780
X6350Y28575
X92202Y17780
X84074Y28575
X84074Y83185
X14478Y72390
X32258Y83185
X6350Y83185
X109982Y28575
X109982Y83185
X66294Y72390
X58166Y83185
X92202Y72390
X66294Y17780
X32258Y28575
T6
X7620Y67310
X7620Y74930
X19685Y74930
X19050Y85725
X3175Y85725
X22225Y84455
X16510Y68580
X9525Y69215
X9525Y60960
X12700Y77470
X22225Y80645
X11557Y85725
X17145Y62865
X10795Y62865
X8255Y62865
X8255Y71755
X20955Y67945
X20955Y66675
X15875Y79375
X8890Y82550
X15240Y85090
X16510Y85090
X12065Y92710
X13335Y92710
X4445Y89535
X3175Y89535
X20955Y89535
X22225Y89535
X5080Y80645
X41783Y60960
X38989Y85725
X40417Y62961
X38227Y85725
X39878Y63500
X33528Y66040
X32893Y75565
X44958Y75565
X44323Y86360
X32258Y84455
X33528Y67310
X33528Y74930
X45593Y74930
X44958Y85725
X29083Y85725
X48133Y84455
X42418Y68580
X35433Y69215
X35433Y60960
X38608Y77470
X48133Y80645
X37465Y85725
X43053Y62865
X36703Y62865
X34163Y62865
X34163Y71755
X46863Y67945
X46863Y66675
X41783Y79375
X34798Y82550
X41148Y85090
X42418Y85090
X37973Y92710
X39243Y92710
X30353Y89535
X29083Y89535
X46863Y89535
X48133Y89535
X30988Y80645
X67691Y60960
X64897Y85725
X66325Y62961
X64135Y85725
X65786Y63500
X59436Y66040
X58801Y75565
X70866Y75565
X70231Y86360
X58166Y84455
X59436Y67310
X59436Y74930
X71501Y74930
X70866Y85725
X54991Y85725
X74041Y84455
X68326Y68580
X39243Y38100
X61341Y60960
X64516Y77470
X74041Y80645
X63373Y85725
X15875Y6350
X68961Y62865
X62611Y62865
X60071Y62865
X60071Y71755
X72771Y67945
X72771Y66675
X67691Y79375
X60706Y82550
X67056Y85090
X68326Y85090
X63881Y92710
X65151Y92710
X56261Y89535
X54991Y89535
X72771Y89535
X74041Y89535
X56896Y80645
X93599Y60960
X90805Y85725
X92233Y62961
X90043Y85725
X91694Y63500
X85344Y66040
X13081Y31115
X84709Y75565
X96774Y75565
X96139Y86360
X84074Y84455
X85344Y67310
X85344Y74930
X97409Y74930
X96774Y85725
X80899Y85725
X99949Y84455
X94234Y68580
X87249Y69215
X87249Y60960
X90424Y77470
X99949Y80645
X89281Y85725
X14509Y8351
X94869Y62865
X88519Y62865
X85979Y62865
X85979Y71755
X98679Y67945
X98679Y66675
X93599Y79375
X86614Y82550
X92964Y85090
X94234Y85090
X89789Y92710
X91059Y92710
X82169Y89535
X80899Y89535
X98679Y89535
X99949Y89535
X82804Y80645
X119507Y60960
X116713Y85725
X118141Y62961
X115951Y85725
X117602Y63500
X111252Y66040
X12319Y31115
X110617Y75565
X122682Y75565
X122047Y86360
X109982Y84455
X111252Y67310
X111252Y74930
X123317Y74930
X122682Y85725
X106807Y85725
X125857Y84455
X120142Y68580
X113157Y69215
X113157Y60960
X116332Y77470
X125857Y80645
X115189Y85725
X13970Y8890
X120777Y62865
X114427Y62865
X111887Y62865
X111887Y71755
X124587Y67945
X124587Y66675
X119507Y79375
X112522Y82550
X118872Y85090
X120142Y85090
X115697Y92710
X116967Y92710
X108077Y89535
X106807Y89535
X124587Y89535
X125857Y89535
X108712Y80645
X7620Y11430
X6985Y20955
X19050Y20955
X18415Y31750
X6350Y29845
X7620Y12700
X7620Y20320
X19685Y20320
X19050Y31115
X3175Y31115
X22225Y29845
X16510Y13970
X9525Y14605
X9525Y6350
X12700Y22860
X22225Y26035
X11557Y31115
X17145Y8255
X10795Y8255
X8255Y8255
X8255Y17145
X20955Y13335
X20955Y12065
X15875Y24765
X8890Y27940
X15240Y30480
X16510Y30480
X12065Y38100
X13335Y38100
X4445Y34925
X3175Y34925
X20955Y34925
X22225Y34925
X5080Y26035
X41783Y6350
X38989Y31115
X40417Y8351
X38227Y31115
X39878Y8890
X33528Y11430
X32893Y20955
X44958Y20955
X44323Y31750
X32258Y29845
X33528Y12700
X33528Y20320
X45593Y20320
X44958Y31115
X29083Y31115
X48133Y29845
X42418Y13970
X35433Y14605
X35433Y6350
X38608Y22860
X48133Y26035
X37465Y31115
X43053Y8255
X36703Y8255
X34163Y8255
X34163Y17145
X46863Y13335
X46863Y12065
X41783Y24765
X34798Y27940
X41148Y30480
X42418Y30480
X37973Y38100
X30353Y34925
X29083Y34925
X46863Y34925
X48133Y34925
X30988Y26035
X67691Y6350
X64897Y31115
X66325Y8351
X64135Y31115
X65786Y8890
X59436Y11430
X58801Y20955
X70866Y20955
X70231Y31750
X58166Y29845
X59436Y12700
X59436Y20320
X71501Y20320
X70866Y31115
X54991Y31115
X74041Y29845
X68326Y13970
X61341Y14605
X61341Y6350
X64516Y22860
X74041Y26035
X63373Y31115
X68961Y8255
X62611Y8255
X60071Y8255
X60071Y17145
X72771Y13335
X72771Y12065
X67691Y24765
X60706Y27940
X67056Y30480
X68326Y30480
X63881Y38100
X65151Y38100
X56261Y34925
X54991Y34925
X72771Y34925
X74041Y34925
X56896Y26035
X93599Y6350
X90805Y31115
X92233Y8351
X90043Y31115
X91694Y8890
X85344Y11430
X84709Y20955
X96774Y20955
X96139Y31750
X84074Y29845
X85344Y12700
X85344Y20320
X61341Y69215
X97409Y20320
X96774Y31115
X80899Y31115
X99949Y29845
X94234Y13970
X87249Y14605
X87249Y6350
X90424Y22860
X99949Y26035
X89281Y31115
X94869Y8255
X88519Y8255
X85979Y8255
X85979Y17145
X98679Y13335
X98679Y12065
X93599Y24765
X86614Y27940
X92964Y30480
X94234Y30480
X89789Y38100
X91059Y38100
X82169Y34925
X80899Y34925
X98679Y34925
X99949Y34925
X82804Y26035
X119507Y6350
X116713Y31115
X118141Y8351
X115951Y31115
X117602Y8890
X111252Y11430
X110617Y20955
X122682Y20955
X122047Y31750
X109982Y29845
X111252Y12700
X111252Y20320
X123317Y20320
X122682Y31115
X106807Y31115
X125857Y29845
X120142Y13970
X113157Y14605
X113157Y6350
X116332Y22860
X125857Y26035
X115189Y31115
X120777Y8255
X114427Y8255
X111887Y8255
X111887Y17145
X124587Y13335
X124587Y12065
X119507Y24765
X112522Y27940
X118872Y30480
X120142Y30480
X115697Y38100
X116967Y38100
X108077Y34925
X106807Y34925
X124587Y34925
X125857Y34925
X108712Y26035
X15875Y60960
X13081Y85725
X14509Y62961
X12319Y85725
X13970Y63500
X7620Y66040
X6985Y75565
X19050Y75565
X18415Y86360
X6350Y84455
M30